<svg width="180" height="120" fill="none" xmlns="http://www.w3.org/2000/svg"><path d="M78.5 25.1l-23.2-9L33 25v46.6h45.5V25.1z" fill="#FDDAEB"/><path d="M101.3 25.1l-23-9h-23l23.2 9v46.6h22.8V25.1z" fill="#FCB6D8"/><path d="M94.2 31.2h-9v9.1h9v-9.1zM94.2 47.9h-9V57h9v-9.1zM51.2 32h-9.1v9h9.1v-9zM51.2 48.6h-9.1v9.2h9.1v-9.2zM69.4 32h-9v9h9v-9zM69.4 48.6h-9v9.2h9v-9.2z" fill="#FF99CB"/><path d="M50 82c-.7 6.8-3.7 14.2-14.6 16 10.9 1.7 13.9 9 14.7 15.8 1.2-6.9 3-13.6 14.7-15.9-11.7-2.3-13.5-9-14.7-15.9z" fill="#FFE9B2"/><path fill-rule="evenodd" clip-rule="evenodd" d="M123.8 85.3h-3.9l-1.4-1.3a31.9 31.9 0 10-3.4 3.4l1.3 1.4v3.8l20.9 20.9c2 2 5.3 2 7.3 0s2-5.3 0-7.3l-20.8-21zm-29.4 0a22 22 0 11-.1-44.1 22 22 0 010 44z" fill="#216BFF"/><path d="M119 5c-.6 5.3-3 11-11.2 12.4 8.3 1.3 10.6 7 11.2 12.3.9-5.3 2.3-10.5 11.2-12.3-9-1.8-10.3-7-11.2-12.4z" fill="#FFE9B2"/></svg>