<svg width="181" height="120" fill="none" xmlns="http://www.w3.org/2000/svg"><path d="M128 56.4l21-13 11.8-7.5h-20l-18.6 11.4a19.3 19.3 0 00-9.5 13.3L82.2 43.8a32.8 32.8 0 00-31.7.1c-.6-3-1.9-5.7-3.8-8H27l9.2 5a7 7 0 013.8 6 7 7 0 01-2.8 5.9l-.9.6-16.7 10.2a17.6 17.6 0 00.6 30.6l1 .5L57.9 115H80L26.5 85.4l-1-.5a7 7 0 01-3.7-6 7 7 0 013.4-6.3l16.9-10.2 1.5-1 10.6-7.2c6.8-4.6 15.5-5 22.8-1L135.2 85l33 19.1V92l-39.7-23c-1.9-1-5-3.4-5.1-6.2 0-2.1 1.7-4.6 4.6-6.3z" fill="#D8E5FF"/><path d="M51.6 90.6C42 85.2 45 76.2 58 70.3c13.1-5.8 31.5-6.2 41-.9M99 69.4c9.6 5.3 11.8 30.5 11.8 30.5s-49.7-4-59.2-9.3" fill="#98BAFC"/><path d="M126.2 24.4c0-6.3 5-6.9 1.9-9.7-.8-.7-13-8-14-8.5-4.3-2-10-1.5-16.2 2a52.7 52.7 0 00-24 41.3c0 15.2 24 42.9 24 42.9l12.5 7.6V85.9l-3.5-2c7-17 19.3-48.6 19.3-59.5z" fill="#FF99CB"/><path d="M86.5 57.2c0 15.1 23.9 42.8 23.9 42.8s23.9-55.3 23.9-70.5c0-15.1-10.7-21.2-24-13.6C97.3 23.5 86.6 42 86.6 57.2z" fill="#FCB6D8"/><path d="M89 57.3A51.3 51.3 0 01113.4 17c6.3-3.5 14.7-3.4 19.2 3.6-3.5-8.3-12.2-10.6-22.3-4.7-13.2 7.6-24 26.1-24 41.3 0 8.6 7.9 21.4 14.6 30.7 5 7-12-16.7-12-30.6z" fill="#FCB6D8"/><path d="M97.1 51c0 8.4 6 11.8 13.3 7.5a29.2 29.2 0 0013.2-22.8c0-8.4-6-11.8-13.2-7.5A29.2 29.2 0 0097 51z" fill="#216BFF"/></svg>