<svg width="181" height="120" fill="none" xmlns="http://www.w3.org/2000/svg"><g clip-path="url(#clip0)"><path d="M79 23.8H51.4v87.6H79V23.8z" fill="#D8E5FF"/><path d="M92 27.2l-13-3.4V111l13 .7V27.2z" fill="#98BAFC"/><path d="M42.4 50.2H18.7v62h23.7v-62z" fill="#D8E5FF"/><path d="M51.5 52l-10-1.8v62h10V52.2z" fill="#98BAFC"/><path d="M62.3 27.7h-6.7v8.4h6.7v-8.4zM75.1 27.7h-6.8v8.4h6.8v-8.4zM62.3 40.3h-6.7v8.4h6.7v-8.4zM75.1 40.3h-6.8v8.4h6.8v-8.4zM62.3 52.9h-6.7v8.4h6.7V53zM75.1 52.9h-6.8v8.4h6.8V53zM62.3 65.5h-6.7v8.4h6.7v-8.4zM75.1 65.5h-6.8v8.4h6.8v-8.4zM62.3 78h-6.7v8.5h6.7v-8.4zM75.1 78h-6.8v8.5h6.8v-8.4zM62.3 90.7h-6.7V99h6.7v-8.4zM75.1 90.7h-6.8V99h6.8v-8.4zM37.9 57.5H22.3v7.3H38v-7.3zM37.9 70.3H22.3v7.3H38v-7.3zM37.9 83H22.3v7.4H38V83zM37.9 95.9H22.3v7.3H38v-7.3z" fill="#216BFF"/><path d="M127.3 48.2l-18-7-17.2 7v63.5h35.2V48.2z" fill="#D8E5FF"/><path d="M145 48.2l-17.9-7h-17.8l18 7v63.5h17.6V48.2z" fill="#98BAFC"/><path d="M139.4 53h-7v7h7v-7zM139.4 65.9h-7v7h7v-7zM139.4 78.8h-7v7h7v-7zM139.4 91.7h-7v7h7v-7z" fill="#1757D7"/><path d="M106.1 53.5h-7v7h7v-7zM106.1 66.5h-7v7h7v-7zM106.1 79.4h-7v7h7v-7zM106.1 92.3h-7v7h7v-7zM120.2 53.5h-7v7h7v-7zM120.2 66.5h-7v7h7v-7zM120.2 79.4h-7v7h7v-7zM120.2 92.3h-7v7h7v-7z" fill="#216BFF"/></g><path d="M147.7 9c-.8 6.4-3.9 13.3-15 15 11.1 1.6 14.2 8.5 15 15 1.2-6.6 3.1-12.9 15-15-11.9-2.2-13.8-8.5-15-15z" fill="#FFE9B2"/><path d="M14.4 32c-.5 3.9-2.5 8-9.4 9 7 1 8.9 5 9.4 8.8.7-3.8 1.9-7.6 9.3-8.9-7.4-1.3-8.6-5-9.3-8.9zM165.2 71.8c-.5 3.9-2.5 8-9.4 9 7 1 8.9 5 9.4 8.8.7-3.8 1.9-7.6 9.3-8.9-7.4-1.3-8.6-5-9.3-8.9z" fill="#FDDAEB"/><defs><clipPath id="clip0"><path fill="#fff" transform="translate(19 23.3)" d="M0 0h156v87.7H0z"/></clipPath></defs></svg>