<svg width="184" height="120" fill="none" xmlns="http://www.w3.org/2000/svg"><path d="M86 51.5a41.5 41.5 0 1083 0 41.5 41.5 0 00-83 0z" fill="#FFE9B2"/><path fill="#1757D7" d="M49 74h1v37h-1z"/><path fill-rule="evenodd" clip-rule="evenodd" d="M60.8 86.8c-.7-5-4-9-3.3-11.8.7-2.9 3.4-4.3 3.4-8.8 0-4.5-3.8-6.4-4-11-.4-4.8 1.9-5.3 2.7-8.9 1-4-.8-7.4-3.5-11-3.6-5.1 0-6.4.2-12.6 0-4.3-3.1-6-5-6.5-.7-.3-1.9-.3-2.6 0-2 .6-5 2.2-5 6.5.2 6.2 3.8 7.5.2 12.5-2.6 3.7-4.5 7-3.5 11.1.8 3.6 3 4.1 2.8 9-.3 4.5-4 6.4-4 10.9s2.6 6 3.3 8.8c.7 2.8-2.6 6.8-3.3 11.8-.8 5.3 1 12.7 10.7 13.2h.2c9.7-.5 11.6-7.9 10.7-13.2z" fill="#FCB6D8"/><path fill-rule="evenodd" clip-rule="evenodd" d="M59.1 60.2l-4-9.2L76 40h52v15.4L94.3 77 59 60.2z" fill="#216BFF"/><path fill-rule="evenodd" clip-rule="evenodd" d="M136.8 45.6v-6.4h-7v1.6l-2.6-1.8L110 50.7l-6.7 2.8L93 101.2l15.7 9.8H145V51.2l-8.2-5.6z" fill="#98BAFC"/><path fill="#D8E5FF" d="M55 51h57v60H55z"/><path fill="#216BFF" d="M73 93h16v18H73z"/><path fill-rule="evenodd" clip-rule="evenodd" d="M126 62v-4h-3v4h3zM125.8 65H123v4h3v-4h-.2z" fill="#1757D7"/><path fill="#1757D7" d="M130 58h4v4h-4zM130 65h4v4h-4z"/><path fill-rule="evenodd" clip-rule="evenodd" d="M126 82v-4h-3v4h3zM125.8 86H123v4h3v-4h-.2z" fill="#1757D7"/><path fill="#1757D7" d="M130 78h4v4h-4zM130 86h4v4h-4z"/><path fill="#216BFF" d="M61 62h43v9H61zM61 78h43v10H61z"/><path fill="#1757D7" d="M22 75h1v36h-1z"/><path fill-rule="evenodd" clip-rule="evenodd" d="M31 79.5c0 12.4-8.4 22.5-8.4 22.5S14.1 92 14 79.5C14 67.1 22.4 57 22.4 57S31 67 31 79.5z" fill="#FDDAEB"/></svg>